REM MD5 bd42ce450933dfdfda205e43b0b95d6f
FILE "Time Commando (Europe).bin" BINARY
  TRACK 01 MODE2/2352
    INDEX 01 00:00:00
  TRACK 02 AUDIO
    INDEX 00 44:26:45
    INDEX 01 44:28:45
  TRACK 03 AUDIO
    INDEX 00 47:35:67
    INDEX 01 47:37:67
REM LEADOUT 50:47:10
